<svg width="227" height="79" viewBox="0 0 227 79" fill="none" xmlns="http://www.w3.org/2000/svg">
<g clip-path="url(#clip0)">
<path d="M64.3955 5.85764C62.7633 5.85764 61.2285 6.20952 59.791 6.9133C58.3685 7.6021 57.1257 8.59038 56.0625 9.87814C54.9993 11.1509 54.1608 12.7007 53.5469 14.5276C52.9329 16.3544 52.626 18.3908 52.626 20.6369C52.626 22.0894 52.7682 23.4595 53.0527 24.7473C53.3522 26.0201 53.7715 27.203 54.3105 28.2961C54.8496 29.3742 55.4935 30.3475 56.2422 31.216C56.9909 32.0695 57.8219 32.7958 58.7354 33.3947C59.6488 33.9937 60.6296 34.4579 61.6777 34.7873C62.7259 35.1018 63.819 35.259 64.957 35.259C65.9603 35.259 66.9561 35.1467 67.9443 34.9221C68.9476 34.6975 69.9059 34.3606 70.8193 33.9113C71.7477 33.4621 72.6162 32.9081 73.4248 32.2492C74.2334 31.5904 74.9521 30.8342 75.5811 29.9807L76.7715 30.9465C75.7832 32.3091 74.7201 33.4247 73.582 34.2932C72.459 35.1617 71.321 35.8505 70.168 36.3596C69.0299 36.8537 67.9069 37.1906 66.7988 37.3703C65.7057 37.565 64.6875 37.6623 63.7441 37.6623C61.4382 37.6623 59.3268 37.2431 57.4102 36.4045C55.4935 35.551 53.8464 34.3905 52.4688 32.9231C51.0911 31.4556 50.0205 29.7336 49.2568 27.757C48.4932 25.7655 48.1113 23.6242 48.1113 21.3332C48.1113 19.8957 48.2536 18.4657 48.5381 17.0432C48.8376 15.6207 49.2793 14.273 49.8633 13.0002C50.4622 11.7125 51.2035 10.522 52.0869 9.42892C52.9704 8.32085 54.0036 7.36252 55.1865 6.55392C56.3695 5.74533 57.7021 5.11642 59.1846 4.66721C60.667 4.20301 62.2992 3.97092 64.0811 3.97092C65.818 3.97092 67.4427 4.20301 68.9551 4.66721C70.4674 5.1314 71.9349 5.83517 73.3574 6.77853L73.1328 4.30783H75.626V14.9768H73.9639C73.7992 13.5393 73.4548 12.259 72.9307 11.136C72.4215 9.99793 71.7552 9.0396 70.9316 8.26096C70.123 7.48231 69.1647 6.89084 68.0566 6.48654C66.9486 6.06727 65.7282 5.85764 64.3955 5.85764ZM93.8526 15.6955C93.2686 15.6806 92.6771 15.7929 92.0782 16.0324C91.4792 16.257 90.8877 16.594 90.3037 17.0432C89.7347 17.4924 89.1957 18.0315 88.6866 18.6604C88.1774 19.2893 87.7207 19.9856 87.3164 20.7492L87.3614 32.0471C87.3614 32.661 87.3539 33.2076 87.3389 33.6867C87.3239 34.1509 87.2715 34.6451 87.1817 35.1692L90.0791 35.0344V36.9211H80.6455V35.551C81.3493 35.551 81.8809 35.4162 82.2403 35.1467C82.6146 34.8622 82.8842 34.4729 83.0489 33.9787C83.2136 33.4846 83.3034 32.8931 83.3184 32.2043C83.3483 31.5155 83.3633 30.7593 83.3633 29.9358V19.424C83.3633 18.9449 83.3708 18.4657 83.3858 17.9865C83.4008 17.4924 83.4532 16.9833 83.543 16.4592L80.2862 16.594V14.7072H81.7012C82.3601 14.7072 82.9066 14.6773 83.3409 14.6174C83.7751 14.5425 84.1345 14.4452 84.419 14.3254C84.7185 14.2056 84.9655 14.0783 85.1602 13.9436C85.3549 13.7938 85.542 13.6366 85.7217 13.4719H87.0469C87.0918 13.9511 87.1293 14.55 87.1592 15.2688C87.2041 15.9725 87.2416 16.886 87.2715 18.009C87.6159 17.44 88.0577 16.871 88.5967 16.302C89.1358 15.718 89.7422 15.2014 90.4161 14.7522C91.0899 14.288 91.8161 13.9136 92.5948 13.6291C93.3734 13.3296 94.1745 13.1799 94.9981 13.1799C95.4174 13.1799 95.8217 13.2398 96.211 13.3596C96.6153 13.4644 96.9597 13.6366 97.2442 13.8762C97.5437 14.1158 97.7832 14.4153 97.9629 14.7746C98.1426 15.134 98.2325 15.5682 98.2325 16.0774C98.2325 16.287 98.1875 16.5191 98.0977 16.7737C98.0228 17.0282 97.8881 17.2678 97.6934 17.4924C97.5137 17.717 97.2816 17.9042 96.9971 18.0539C96.7126 18.2037 96.3607 18.2785 95.9414 18.2785C95.597 18.2785 95.2826 18.2037 94.9981 18.0539C94.7286 17.9042 94.4965 17.717 94.3018 17.4924C94.1221 17.2528 93.9873 16.9833 93.8975 16.6838C93.8226 16.3694 93.8077 16.0399 93.8526 15.6955ZM112.236 14.9768C110.44 14.9768 108.957 15.5084 107.789 16.5715C106.621 17.6197 105.85 19.3267 105.476 21.6926H117.2C117.2 20.884 117.11 20.0829 116.931 19.2893C116.751 18.4807 116.459 17.7619 116.055 17.133C115.665 16.4891 115.156 15.9725 114.527 15.5832C113.899 15.1789 113.135 14.9768 112.236 14.9768ZM121.535 23.3547L105.341 23.6242C105.326 25.3912 105.461 26.9934 105.745 28.4309C106.03 29.8684 106.479 31.0962 107.093 32.1145C107.707 33.1327 108.493 33.9188 109.451 34.4729C110.425 35.0269 111.585 35.3039 112.933 35.3039C113.651 35.3039 114.385 35.2066 115.134 35.0119C115.883 34.8173 116.601 34.5552 117.29 34.2258C117.994 33.8814 118.638 33.4771 119.222 33.0129C119.806 32.5337 120.292 32.0246 120.682 31.4856L121.805 32.4065C121.176 33.3648 120.442 34.1809 119.604 34.8547C118.78 35.5136 117.919 36.0526 117.021 36.4719C116.137 36.8912 115.246 37.1906 114.348 37.3703C113.449 37.565 112.611 37.6623 111.832 37.6623C110.245 37.6623 108.762 37.3778 107.385 36.8088C106.022 36.2398 104.839 35.4237 103.836 34.3606C102.833 33.2974 102.039 32.0171 101.455 30.5197C100.886 29.0223 100.602 27.3378 100.602 25.466C100.602 23.8488 100.879 22.3065 101.433 20.8391C101.987 19.3567 102.773 18.0464 103.791 16.9084C104.809 15.7704 106.03 14.8645 107.452 14.1906C108.875 13.5168 110.455 13.1799 112.191 13.1799C113.464 13.1799 114.662 13.3895 115.785 13.8088C116.923 14.2281 117.919 14.857 118.773 15.6955C119.626 16.5341 120.3 17.5972 120.794 18.885C121.288 20.1578 121.535 21.6477 121.535 23.3547ZM139.515 25.6682C138.811 25.6981 138.077 25.7655 137.314 25.8703C136.565 25.9602 135.824 26.1099 135.09 26.3195C134.371 26.5142 133.69 26.7688 133.046 27.0832C132.402 27.3977 131.841 27.772 131.361 28.2063C130.882 28.6405 130.508 29.1421 130.238 29.7112C129.969 30.2802 129.849 30.924 129.879 31.6428C129.894 32.2118 129.999 32.7134 130.193 33.1477C130.403 33.5669 130.665 33.9188 130.98 34.2033C131.309 34.4729 131.683 34.6825 132.103 34.8322C132.522 34.967 132.971 35.0344 133.45 35.0344C134.064 35.0344 134.641 34.9745 135.18 34.8547C135.719 34.7349 136.228 34.5627 136.707 34.3381C137.201 34.0985 137.673 33.814 138.122 33.4846C138.586 33.1552 139.051 32.7733 139.515 32.3391V25.6682ZM126.892 18.7053C126.892 17.9416 127.116 17.2229 127.566 16.549C128.015 15.8752 128.644 15.2912 129.452 14.7971C130.261 14.288 131.219 13.8912 132.327 13.6067C133.45 13.3222 134.671 13.1799 135.988 13.1799C138.564 13.1799 140.458 13.8612 141.671 15.2238C142.899 16.5865 143.505 18.7502 143.49 21.7151L143.445 32.0471C143.445 32.5263 143.43 33.0129 143.401 33.507C143.386 33.9862 143.341 34.5403 143.266 35.1692L146.523 34.9895V36.9211H139.942C139.852 36.397 139.784 35.9403 139.739 35.551C139.694 35.1617 139.657 34.7499 139.627 34.3156C138.594 35.3488 137.463 36.1649 136.235 36.7639C135.023 37.3628 133.735 37.6623 132.372 37.6623C131.219 37.6623 130.208 37.5201 129.34 37.2356C128.486 36.966 127.775 36.5842 127.206 36.0901C126.637 35.5959 126.21 35.0194 125.926 34.3606C125.641 33.6867 125.499 32.968 125.499 32.2043C125.499 31.261 125.701 30.4 126.106 29.6213C126.525 28.8427 127.079 28.1539 127.768 27.5549C128.471 26.941 129.288 26.4169 130.216 25.9826C131.144 25.5334 132.125 25.1666 133.158 24.882C134.206 24.5975 135.27 24.3954 136.348 24.2756C137.441 24.1408 138.504 24.0809 139.537 24.0959V21.2209C139.537 20.4273 139.492 19.6561 139.402 18.9074C139.313 18.1587 139.11 17.4774 138.796 16.8635C138.497 16.2496 138.017 15.7629 137.359 15.4035C136.715 15.0442 135.966 14.8645 135.112 14.8645C134.618 14.8645 134.147 14.9094 133.697 14.9992C133.248 15.0741 132.806 15.2089 132.372 15.4035C131.938 15.5982 131.541 15.8528 131.182 16.1672C130.837 16.4817 130.553 16.856 130.328 17.2903C130.553 17.5448 130.703 17.8293 130.777 18.1438C130.867 18.4432 130.912 18.7352 130.912 19.0197C130.912 19.1994 130.875 19.4091 130.8 19.6487C130.725 19.8733 130.605 20.0904 130.441 20.3C130.291 20.4947 130.089 20.6594 129.834 20.7942C129.595 20.914 129.265 20.9738 128.846 20.9738C128.247 20.9738 127.768 20.7567 127.408 20.3225C127.064 19.8733 126.892 19.3342 126.892 18.7053ZM148.757 13.9211C149.566 13.9061 150.299 13.689 150.958 13.2697C151.617 12.8355 152.194 12.3039 152.688 11.675C153.197 11.0311 153.624 10.3348 153.968 9.58615C154.312 8.83745 154.582 8.13368 154.777 7.47482H156.349C156.349 8.70269 156.341 9.8482 156.326 10.9113C156.326 11.9745 156.326 12.9778 156.326 13.9211H164.075V15.718L156.326 15.8078C156.311 17.7994 156.304 19.4989 156.304 20.9065C156.304 22.314 156.296 23.4895 156.281 24.4328C156.281 25.3762 156.281 26.1249 156.281 26.6789C156.281 27.218 156.274 27.6298 156.259 27.9143C156.259 28.1988 156.259 28.386 156.259 28.4758C156.259 28.5507 156.259 28.5956 156.259 28.6106C156.259 29.6587 156.311 30.5871 156.416 31.3957C156.536 32.1893 156.731 32.8632 157 33.4172C157.27 33.9563 157.622 34.3681 158.056 34.6526C158.505 34.9221 159.067 35.0569 159.74 35.0569C160.534 35.0569 161.32 34.8173 162.099 34.3381C162.877 33.8589 163.566 33.1776 164.165 32.2942L165.401 33.3049C164.727 34.3231 164.053 35.1242 163.379 35.7082C162.72 36.2772 162.091 36.704 161.492 36.9885C160.893 37.288 160.332 37.4751 159.808 37.55C159.299 37.6249 158.849 37.6623 158.46 37.6623C157.996 37.6623 157.517 37.6249 157.023 37.55C156.543 37.4751 156.064 37.3254 155.585 37.1008C155.121 36.8912 154.679 36.5917 154.26 36.2024C153.856 35.7981 153.496 35.2815 153.182 34.6526C152.867 34.0237 152.62 33.26 152.441 32.3615C152.261 31.4631 152.179 30.4 152.194 29.1721L152.283 15.8752L148.757 15.8977V13.9211ZM170.824 19.4465C170.824 18.9673 170.832 18.5031 170.847 18.0539C170.877 17.6047 170.929 17.0731 171.004 16.4592L167.747 16.6389V14.7072C168.751 14.7072 169.582 14.6773 170.24 14.6174C170.899 14.5425 171.438 14.4452 171.858 14.3254C172.277 14.2056 172.599 14.0783 172.823 13.9436C173.063 13.7938 173.273 13.6366 173.452 13.4719H174.778V32.0471C174.778 32.661 174.77 33.2076 174.755 33.6867C174.74 34.1509 174.688 34.6451 174.598 35.1692L177.495 35.0344V36.9211H168.107V35.551C168.81 35.551 169.342 35.4162 169.701 35.1467C170.076 34.8622 170.345 34.4729 170.51 33.9787C170.675 33.4846 170.765 32.8931 170.779 32.2043C170.809 31.5155 170.824 30.7593 170.824 29.9358V19.4465ZM175.204 6.19455C175.204 6.5689 175.129 6.92079 174.98 7.25021C174.845 7.57964 174.665 7.87163 174.441 8.12619C174.216 8.36577 173.954 8.55295 173.654 8.68771C173.355 8.82248 173.041 8.88986 172.711 8.88986C172.382 8.88986 172.067 8.82248 171.768 8.68771C171.468 8.55295 171.199 8.36577 170.959 8.12619C170.735 7.87163 170.555 7.57964 170.42 7.25021C170.3 6.92079 170.24 6.5689 170.24 6.19455C170.24 5.80523 170.308 5.44585 170.443 5.11642C170.577 4.77202 170.757 4.47254 170.982 4.21799C171.221 3.96343 171.491 3.76877 171.79 3.634C172.09 3.48426 172.412 3.40939 172.756 3.40939C173.1 3.40939 173.415 3.48426 173.699 3.634C173.999 3.76877 174.261 3.96343 174.486 4.21799C174.71 4.47254 174.882 4.77202 175.002 5.11642C175.137 5.44585 175.204 5.80523 175.204 6.19455ZM192.083 37.0559H190.241L183.66 22.052C183.286 21.1835 182.972 20.4123 182.717 19.7385C182.477 19.0647 182.283 18.4732 182.133 17.9641C181.998 17.44 181.901 16.9983 181.841 16.6389C181.781 16.2645 181.744 15.9426 181.729 15.6731L179.752 15.8078V13.9211H188.22V15.2912C187.516 15.2912 187.007 15.4335 186.693 15.718C186.393 16.0025 186.228 16.3843 186.198 16.8635C186.169 17.3277 186.243 17.8668 186.423 18.4807C186.618 19.0946 186.865 19.7385 187.164 20.4123L190.691 28.4983C190.93 29.0223 191.162 29.5764 191.387 30.1604C191.612 30.7294 191.844 31.3059 192.083 31.8899H192.128C192.293 31.4406 192.465 30.9615 192.645 30.4524C192.839 29.9432 193.027 29.4341 193.206 28.925L196.867 18.8401C197.122 18.1063 197.377 17.4625 197.631 16.9084C197.901 16.3544 198.103 15.9426 198.238 15.6731L195.295 15.8078V13.9211H202.572V15.2912C202.063 15.2912 201.622 15.426 201.247 15.6955C200.873 15.9501 200.521 16.3394 200.192 16.8635C199.862 17.3726 199.533 18.0165 199.203 18.7951C198.874 19.5738 198.507 20.4797 198.103 21.5129L192.083 37.0559ZM216.509 14.9768C214.712 14.9768 213.23 15.5084 212.062 16.5715C210.894 17.6197 210.123 19.3267 209.748 21.6926H221.473C221.473 20.884 221.383 20.0829 221.203 19.2893C221.024 18.4807 220.732 17.7619 220.327 17.133C219.938 16.4891 219.429 15.9725 218.8 15.5832C218.171 15.1789 217.408 14.9768 216.509 14.9768ZM225.808 23.3547L209.614 23.6242C209.599 25.3912 209.733 26.9934 210.018 28.4309C210.302 29.8684 210.752 31.0962 211.366 32.1145C211.979 33.1327 212.766 33.9188 213.724 34.4729C214.697 35.0269 215.858 35.3039 217.205 35.3039C217.924 35.3039 218.658 35.2066 219.407 35.0119C220.155 34.8173 220.874 34.5552 221.563 34.2258C222.267 33.8814 222.91 33.4771 223.494 33.0129C224.078 32.5337 224.565 32.0246 224.954 31.4856L226.077 32.4065C225.449 33.3648 224.715 34.1809 223.876 34.8547C223.053 35.5136 222.192 36.0526 221.293 36.4719C220.41 36.8912 219.519 37.1906 218.62 37.3703C217.722 37.565 216.883 37.6623 216.105 37.6623C214.518 37.6623 213.035 37.3778 211.658 36.8088C210.295 36.2398 209.112 35.4237 208.109 34.3606C207.105 33.2974 206.312 32.0171 205.728 30.5197C205.159 29.0223 204.874 27.3378 204.874 25.466C204.874 23.8488 205.151 22.3065 205.705 20.8391C206.259 19.3567 207.046 18.0464 208.064 16.9084C209.082 15.7704 210.302 14.8645 211.725 14.1906C213.147 13.5168 214.727 13.1799 216.464 13.1799C217.737 13.1799 218.935 13.3895 220.058 13.8088C221.196 14.2281 222.192 14.857 223.045 15.6955C223.899 16.5341 224.573 17.5972 225.067 18.885C225.561 20.1578 225.808 21.6477 225.808 23.3547Z" fill="black"/>
<path d="M50.3555 51.7883H55.1953C57.4688 51.7883 59.1133 52.1281 60.1289 52.8078C61.1445 53.4875 61.6523 54.5617 61.6523 56.0305C61.6523 57.0461 61.3672 57.886 60.7969 58.55C60.2344 59.2063 59.4102 59.632 58.3242 59.8274V59.9445C60.9258 60.3899 62.2266 61.757 62.2266 64.0461C62.2266 65.5774 61.707 66.7727 60.668 67.632C59.6367 68.4914 58.1914 68.9211 56.332 68.9211H50.3555V51.7883ZM52.3477 59.1242H55.6289C57.0352 59.1242 58.0469 58.9055 58.6641 58.468C59.2812 58.0227 59.5898 57.2766 59.5898 56.2297C59.5898 55.2688 59.2461 54.5774 58.5586 54.1555C57.8711 53.7258 56.7773 53.511 55.2773 53.511H52.3477V59.1242ZM52.3477 60.8117V67.2219H55.9219C57.3047 67.2219 58.3438 66.9563 59.0391 66.425C59.7422 65.886 60.0938 65.0461 60.0938 63.9055C60.0938 62.843 59.7344 62.0617 59.0156 61.5617C58.3047 61.0617 57.2188 60.8117 55.7578 60.8117H52.3477ZM76.9973 60.3547L81.5677 51.7883H83.7239L78.0052 62.2766V68.9211H75.9895V62.3703L70.2825 51.7883H72.4622L76.9973 60.3547ZM116.028 68.9211H113.755L104.392 54.5422H104.298C104.423 56.2297 104.485 57.7766 104.485 59.1828V68.9211H102.645V51.7883H104.895L114.235 66.1086H114.329C114.313 65.8977 114.278 65.2219 114.224 64.0813C114.169 62.9328 114.149 62.1125 114.165 61.6203V51.7883H116.028V68.9211ZM138.229 68.9211L136.096 63.4719H129.229L127.119 68.9211H125.104L131.877 51.718H133.553L140.291 68.9211H138.229ZM135.475 61.6789L133.483 56.3703C133.225 55.6985 132.959 54.8742 132.686 53.8977C132.514 54.6477 132.268 55.4719 131.948 56.3703L129.932 61.6789H135.475ZM154.64 68.9211H152.648V53.5578H147.222V51.7883H160.066V53.5578H154.64V68.9211ZM182.313 51.7883V62.8742C182.313 64.8274 181.723 66.3625 180.544 67.4797C179.364 68.5969 177.743 69.1555 175.68 69.1555C173.618 69.1555 172.02 68.593 170.887 67.468C169.762 66.343 169.2 64.7961 169.2 62.8274V51.7883H171.192V62.968C171.192 64.3977 171.583 65.4953 172.364 66.261C173.145 67.0266 174.294 67.4094 175.809 67.4094C177.255 67.4094 178.368 67.0266 179.149 66.261C179.93 65.4875 180.321 64.382 180.321 62.9445V51.7883H182.313ZM195.572 61.7961V68.9211H193.58V51.7883H198.279C200.381 51.7883 201.932 52.1906 202.932 52.9953C203.94 53.8 204.443 55.011 204.443 56.6281C204.443 58.8938 203.295 60.425 200.998 61.2219L205.65 68.9211H203.295L199.147 61.7961H195.572ZM195.572 60.0852H198.303C199.709 60.0852 200.74 59.8078 201.397 59.2531C202.053 58.6906 202.381 57.8508 202.381 56.7336C202.381 55.6008 202.045 54.7844 201.373 54.2844C200.709 53.7844 199.639 53.5344 198.162 53.5344H195.572V60.0852ZM224.687 68.9211H215.136V51.7883H224.687V53.5578H217.128V59.0774H224.23V60.8352H217.128V67.1399H224.687V68.9211Z" fill="black"/>
<g clip-path="url(#clip1)">
<path d="M26.7225 40.1861C26.6983 40.1753 26.6723 40.1694 26.6458 40.1688C26.6194 40.1682 26.5931 40.1729 26.5684 40.1825C22.123 41.8319 18.9124 46.3653 18.708 51.0786C18.6867 51.5933 19.4409 51.5732 19.5245 51.102C20.3148 46.6171 22.5685 43.2413 26.3703 40.8529C26.3854 46.2329 23.6621 50.1793 18.5961 52.054C18.3598 52.1432 18.4197 52.5795 18.6897 52.5316C24.142 51.5901 28.1843 46.1054 27.3465 40.6061C27.3426 40.5333 27.3218 40.4623 27.2859 40.3989C27.2499 40.3355 27.1997 40.2812 27.1392 40.2405C27.0787 40.1998 27.0096 40.1737 26.9373 40.1643C26.865 40.1548 26.7914 40.1623 26.7225 40.1861V40.1861Z" fill="black"/>
<path d="M14.4242 44.2879C14.5618 44.3192 14.5861 44.08 14.4636 44.0555C10.7387 43.0378 8.6189 40.5173 7.40005 37.0994C9.01573 37.7854 10.5499 38.3878 11.9983 39.5356C13.6738 40.84 14.8587 42.5214 15.9843 44.2983C16.0843 44.4622 16.3099 44.3089 16.2554 44.145C14.8943 40.2925 10.9649 36.2823 6.82992 35.5576C6.69809 35.5509 6.56757 35.5865 6.45741 35.6592C6.34725 35.732 6.26323 35.8381 6.21764 35.962C6.17205 36.0858 6.16726 36.2211 6.20399 36.3478C6.24071 36.4746 6.31702 36.5863 6.42176 36.6666C7.25144 40.4545 10.7816 43.3596 14.4242 44.2879Z" fill="black"/>
<path d="M32.3494 27.2729C30.7734 29.4208 29.2028 31.3148 26.7993 32.5958C24.5956 33.7132 22.1576 34.2902 19.6871 34.2789C19.5313 34.2841 19.5217 34.5499 19.6754 34.5734C24.779 35.4248 30.9644 32.671 33.2148 27.8506C33.4833 27.3108 32.7432 26.7346 32.3494 27.2729Z" fill="black"/>
<path d="M21.953 31.6412C21.6902 32.0892 22.3873 32.6167 22.6935 32.1519C25.0714 28.5387 28.6036 26.75 32.8766 26.7322C33.0043 26.7305 33.0097 26.5221 32.8903 26.5C28.6143 25.6706 24.1079 27.9505 21.953 31.6412Z" fill="black"/>
<path d="M22.2769 18.0806C22.2462 17.1238 22.1561 16.1699 22.0069 15.2243C21.1898 10.2116 18.7471 5.4614 14.0784 3.1676C14.1027 3.03697 14.1005 2.90277 14.0719 2.77301C14.058 2.70095 14.0184 2.63639 13.9605 2.5913C13.9026 2.54622 13.8303 2.52367 13.757 2.52782C13.6957 2.42122 13.6118 2.32941 13.5111 2.25888C13.4104 2.18836 13.2954 2.14086 13.1743 2.11974C13.0649 2.099 12.9524 2.10138 12.844 2.12671C12.7355 2.15205 12.6336 2.19979 12.5447 2.26686C12.4558 2.33393 12.3819 2.41884 12.3278 2.51616C12.2737 2.61347 12.2405 2.72104 12.2304 2.83193C12.2592 3.07573 12.3674 3.30325 12.5384 3.47935C12.7094 3.65546 12.9337 3.77034 13.1765 3.80628C13.3005 3.81818 13.4256 3.8038 13.5437 3.76409C13.6618 3.72437 13.7702 3.6602 13.8618 3.57577C13.904 3.53124 13.9418 3.48271 13.9746 3.43086C16.6186 5.03203 18.6633 7.45752 19.7942 10.3344C18.0885 8.62699 15.2985 8.01336 13.1666 9.46532C13.1053 9.50898 13.0602 9.57179 13.0385 9.64387C13.0167 9.71595 13.0196 9.7932 13.0466 9.86346C13.0736 9.93373 13.1232 9.99303 13.1875 10.032C13.2519 10.071 13.3275 10.0875 13.4022 10.0788C14.4242 11.2286 19.0951 13.9289 20.4549 12.2148C21.4082 15.6825 21.6127 19.3136 21.0548 22.8668C20.7958 24.6485 20.4156 26.4168 20.0032 28.155C20.2282 22.9215 16.6789 17.2795 11.1631 16.6586C10.5805 16.5947 10.219 17.5529 10.8109 17.7607L11.3447 17.9587C11.3429 17.9824 11.343 18.0061 11.345 18.0298C12.028 22.513 15.3943 27.3244 19.4153 29.534C19.4232 29.5793 19.4442 29.6212 19.4757 29.6547C19.5071 29.6882 19.5477 29.7117 19.5924 29.7224C19.0215 31.9697 18.4012 34.2089 17.873 36.4792C17.6752 33.3806 15.2718 30.8669 12.385 30.0008C12.4155 29.86 12.3972 29.713 12.333 29.584C12.2689 29.455 12.1628 29.3517 12.0322 29.291C11.9923 29.2717 11.948 29.2636 11.9038 29.2676C11.8597 29.2716 11.8175 29.2875 11.7818 29.3137C11.7607 29.164 11.694 29.0245 11.5906 28.9142C11.4873 28.8039 11.3525 28.7281 11.2045 28.6973C11.0753 28.686 10.9451 28.7033 10.8233 28.7481C10.7015 28.7928 10.5911 28.8639 10.4999 28.9562C10.4087 29.0486 10.339 29.1599 10.2957 29.2822C10.2524 29.4045 10.2367 29.5349 10.2496 29.664C10.272 29.8236 10.3263 29.9769 10.4094 30.115C10.4924 30.253 10.6025 30.3728 10.733 30.4673C10.8634 30.5618 11.0116 30.629 11.1687 30.6648C11.3257 30.7007 11.4884 30.7045 11.647 30.676C11.7507 30.6553 11.8508 30.6188 11.9436 30.5679C11.9581 30.5817 11.9739 30.594 11.9908 30.6047C14.991 31.468 16.8204 33.7119 17.7045 36.6112C17.7078 36.6234 17.7141 36.6347 17.7229 36.6439C17.7316 36.653 17.7425 36.6599 17.7546 36.6638C17.7667 36.6676 17.7796 36.6684 17.7921 36.666C17.8045 36.6636 17.8162 36.6581 17.826 36.6501C17.2298 39.0514 16.8129 41.4937 16.5789 43.9567C16.326 47.0155 16.3601 50.0911 16.6808 53.1433C14.0065 49.8471 10.0354 47.2615 5.8009 46.6971C5.82886 46.6306 5.84319 46.5592 5.84303 46.4871C5.85037 46.351 5.81142 46.2165 5.73252 46.1055C5.65362 45.9944 5.53943 45.9134 5.40856 45.8756C5.40654 45.6934 5.3452 45.5168 5.23385 45.3726C5.1225 45.2284 4.96719 45.1244 4.79143 45.0764C4.16238 44.9358 3.61795 45.5897 3.67433 46.18C3.70099 46.3505 3.76269 46.5136 3.85554 46.6591C3.94838 46.8046 4.07036 46.9292 4.21379 47.0252C4.35721 47.1212 4.51896 47.1864 4.68885 47.2167C4.85875 47.247 5.03309 47.2418 5.20089 47.2014C5.27947 47.1822 5.35517 47.1527 5.42605 47.1136C5.46166 47.1743 5.51913 47.219 5.58668 47.2387C9.96397 48.5163 13.5665 50.3343 16.7345 53.6202C16.9304 55.4167 17.2209 57.2016 17.6046 58.9676C16.9894 58.312 16.305 57.7249 15.5634 57.2166C13.3828 55.6806 10.8091 54.7986 8.14447 54.674C7.99268 54.4142 7.84019 54.1488 7.67964 53.8872C7.43235 53.4771 6.78974 53.7762 6.86546 54.2248C7.75652 59.6492 13.7893 62.9392 18.7879 63.3343C20.5314 68.9077 23.3717 74.076 27.1417 78.5352C27.5812 79.0494 28.3308 78.2163 27.9646 77.7187C26.327 75.4719 24.8458 73.1151 23.5314 70.665C23.5808 70.6357 23.6242 70.5975 23.6596 70.5523C28.69 69.1003 32.5578 64.4309 33.2732 59.2756C33.2922 59.1721 33.2696 59.0653 33.2104 58.9784C33.1511 58.8915 33.0599 58.8316 32.9566 58.8116C32.9472 58.7848 32.9304 58.7614 32.908 58.744C32.8857 58.7266 32.8588 58.716 32.8306 58.7135C27.5702 58.4078 22.9259 64.2891 22.8341 69.3126C21.8091 67.2635 20.9207 65.1487 20.1748 62.9822C21.5697 59.2413 24.2591 56.8067 27.4988 54.588C27.541 54.5601 27.5729 54.5191 27.5896 54.4714C27.6912 54.6541 27.8543 54.7947 28.05 54.8683C28.2456 54.9418 28.4611 54.9435 28.6579 54.873C29.0984 54.71 29.5349 54.1492 29.3129 53.6677C29.2926 53.6265 29.2615 53.5916 29.2228 53.5669C29.1841 53.5421 29.1394 53.5284 29.0935 53.5273C29.0019 53.3594 28.8619 53.2229 28.6918 53.1356C28.5217 53.0482 28.3292 53.0141 28.1394 53.0375C28.0259 53.06 27.918 53.1046 27.8218 53.1689C27.7256 53.2332 27.6431 53.3159 27.579 53.4122C27.5148 53.5084 27.4703 53.6164 27.4481 53.73C27.4258 53.8435 27.4261 53.9603 27.4491 54.0736C27.4184 54.0609 27.3853 54.0549 27.352 54.0561C27.3188 54.0573 27.2862 54.0656 27.2565 54.0806C23.7115 55.7428 21.4062 59.1393 20.084 62.7091C18.496 58.0425 17.6582 53.1534 17.602 48.224C17.5265 42.4732 18.811 37.0222 20.2254 31.4953C21.2366 27.5974 22.2031 23.5685 22.2859 19.5246C22.322 19.5416 22.3613 19.5506 22.4013 19.551C22.4412 19.5513 22.4807 19.543 22.517 19.5265C22.5534 19.5101 22.5858 19.4859 22.6119 19.4558C22.638 19.4256 22.6573 19.3901 22.6683 19.3517L22.7027 19.3076C26.262 18.972 28.6793 15.5615 28.3686 12.0815C28.3684 12.007 28.3433 11.9347 28.2974 11.8761C28.2514 11.8174 28.1873 11.7757 28.115 11.7576C28.2245 11.6776 28.3378 11.5971 28.4547 11.5161C28.5381 11.4545 28.4762 11.3001 28.3733 11.3414C25.5364 12.5228 23.0506 15.0856 22.2769 18.0806ZM12.8043 2.71202C12.8288 2.58949 13.0999 2.52726 13.207 2.51959C13.3044 2.52768 13.3971 2.56465 13.4734 2.62576C13.3994 2.68227 13.3497 2.76472 13.3342 2.85645C13.3057 3.15299 12.766 2.88462 12.7994 2.71832L12.8043 2.71202ZM14.2773 9.86448C16.5966 9.34776 18.5955 9.77556 20.2357 11.5736L20.3206 11.8219C19.1085 13.145 15.7541 10.8523 14.2773 9.86448ZM10.7563 29.507C10.7526 29.4455 10.7618 29.3839 10.7833 29.3262C10.8047 29.2684 10.838 29.2158 10.881 29.1716C10.9239 29.1274 10.9756 29.0927 11.0327 29.0696C11.0898 29.0466 11.1511 29.0357 11.2127 29.0376C11.3289 29.0672 11.4291 29.1407 11.4922 29.2427C11.5553 29.3446 11.5763 29.4671 11.5509 29.5843C11.5417 29.6032 11.5393 29.6247 11.5441 29.6452C11.5488 29.6657 11.5605 29.6839 11.5771 29.6969C11.5937 29.7098 11.6142 29.7166 11.6353 29.7162C11.6563 29.7158 11.6766 29.7082 11.6927 29.6946C11.7033 29.7279 11.7207 29.7587 11.7437 29.785C11.9572 30.0371 11.3396 30.0572 11.2244 30.0232C11.0997 30.0023 10.9857 29.94 10.9008 29.8463C10.8159 29.7527 10.765 29.6331 10.7563 29.507V29.507ZM4.09807 45.9735C4.10669 45.8941 4.13102 45.8171 4.16965 45.7472C4.20828 45.6772 4.26044 45.6156 4.32308 45.566C4.38572 45.5164 4.45761 45.4797 4.53455 45.4581C4.6115 45.4365 4.69196 45.4304 4.77127 45.4402C4.88132 45.4687 4.97994 45.5304 5.05378 45.6168C5.12762 45.7033 5.17311 45.8103 5.18411 45.9235C5.13689 45.9605 5.10498 46.0136 5.09448 46.0726C5.08398 46.1317 5.09563 46.1925 5.12721 46.2435V46.2435C5.06835 46.3191 5.20063 46.4221 5.25635 46.344C5.28044 46.3654 5.29911 46.3922 5.31082 46.4222C5.32254 46.4522 5.32696 46.4846 5.32373 46.5167C5.3205 46.5487 5.30971 46.5795 5.29224 46.6066C5.27477 46.6337 5.25113 46.6563 5.22325 46.6724C5.14288 46.7225 5.05312 46.7556 4.95949 46.7697C4.86586 46.7838 4.77034 46.7787 4.67879 46.7545C4.50251 46.7193 4.34557 46.6199 4.2383 46.4757C4.13104 46.3314 4.08108 46.1525 4.09807 45.9735V45.9735ZM27.9129 54.121C27.6374 53.4613 28.5584 53.1815 28.91 53.607C28.8852 53.6434 28.8698 53.6854 28.8654 53.7292C28.8795 53.852 28.8585 53.9763 28.8049 54.0877C28.7513 54.1991 28.6673 54.293 28.5626 54.3586C28.5056 54.3923 28.4419 54.413 28.376 54.419C28.31 54.4251 28.2436 54.4164 28.1815 54.3937C28.1193 54.371 28.063 54.3347 28.0165 54.2876C27.9701 54.2404 27.9347 54.1835 27.9129 54.121V54.121ZM11.9594 59.7993C10.6808 58.6778 9.61548 57.3342 8.81496 55.8335C10.5589 55.9672 12.2633 56.4211 13.8427 57.1723C15.2182 57.8485 16.9177 58.8882 17.9189 60.2596C18.1364 61.1238 18.3732 61.9827 18.6292 62.8364C16.1726 62.4443 13.8679 61.3948 11.9594 59.7993V59.7993ZM26.532 62.9577C28.2241 61.0571 30.2659 60.299 32.462 59.317C31.2713 64.2187 28.1932 67.8736 23.7817 70.1161C24.1466 67.4707 24.6812 65.0232 26.5288 62.9553L26.532 62.9577ZM15.0467 24.1648C13.6291 22.3276 12.713 20.2686 11.8099 18.1539C14.0865 19.0306 16.0895 20.0638 17.5822 22.2074C18.7821 23.9794 19.429 26.0678 19.4409 28.2081C17.8308 26.9951 16.3057 25.8028 15.0411 24.1655L15.0467 24.1648ZM27.6435 12.1748C27.7337 15.5742 25.8572 17.8675 22.8114 18.9925C23.9382 16.1611 25.2723 13.9666 27.6467 12.1317C27.6429 12.1461 27.6399 12.1607 27.6379 12.1755L27.6435 12.1748Z" fill="black"/>
</g>
</g>
<defs>
<clipPath id="clip0">
<rect width="227" height="79" fill="white"/>
</clipPath>
<clipPath id="clip1">
<rect width="54.2966" height="59.4718" fill="white" transform="translate(-19.3542 42.8441) rotate(-52.0992)"/>
</clipPath>
</defs>
</svg>
