<svg width="167" height="71" viewBox="0 0 167 71" fill="none" xmlns="http://www.w3.org/2000/svg">
<path d="M128.739 66.2106C127.748 66.2094 126.775 65.9468 125.919 65.4492C125.062 64.9517 124.352 64.2369 123.86 63.3771C123.368 62.5172 123.112 61.5427 123.117 60.5521C123.122 59.5615 123.389 58.5898 123.89 57.7352V57.7348L131.77 44.28L141.488 49.9717L133.607 63.4269C133.109 64.2756 132.398 64.9791 131.544 65.4674C130.69 65.9558 129.723 66.212 128.739 66.2106Z" fill="#7BA9A9"/>
<path d="M159.664 35.4595C163.492 35.4595 166.594 32.3568 166.594 28.5293C166.594 24.7019 163.492 21.5991 159.664 21.5991C155.837 21.5991 152.734 24.7019 152.734 28.5293C152.734 32.3568 155.837 35.4595 159.664 35.4595Z" fill="#7BA9A9"/>
<path d="M98.2477 66.2106C97.257 66.2094 96.2842 65.9468 95.4275 65.4492C94.5707 64.9517 93.8605 64.2369 93.3686 63.377C92.8766 62.5171 92.6203 61.5425 92.6256 60.5518C92.6308 59.5611 92.8975 58.5894 93.3986 57.7348L101.279 44.28L110.997 49.9717L103.116 63.4269C102.618 64.2755 101.907 64.9789 101.053 65.4673C100.199 65.9556 99.2315 66.2119 98.2477 66.2106Z" fill="#7BA9A9"/>
<path d="M143.62 57.2175H108.701C103.949 57.2121 99.3933 55.322 96.0331 51.9618C92.6728 48.6015 90.7827 44.0456 90.7773 39.2935V33.9888C90.7792 32.3385 91.4356 30.7564 92.6025 29.5895C93.7694 28.4225 95.3515 27.7661 97.0018 27.7642H143.62C147.526 27.7642 151.272 29.3157 154.033 32.0775C156.795 34.8393 158.347 38.5851 158.347 42.4909C158.347 46.3966 156.795 50.1424 154.033 52.9042C151.272 55.666 147.526 57.2175 143.62 57.2175Z" fill="#617575"/>
<path d="M141.966 70.7928C140.473 70.7911 139.042 70.1973 137.986 69.1417C136.93 68.0861 136.337 66.6549 136.335 65.162V49.5691H147.597V65.162C147.595 66.6549 147.001 68.0861 145.945 69.1417C144.89 70.1973 143.459 70.7911 141.966 70.7928Z" fill="#617575"/>
<path d="M109.288 70.7928C107.795 70.7911 106.363 70.1973 105.308 69.1417C104.252 68.0861 103.658 66.6549 103.657 65.162V49.5691H114.918V65.162C114.917 66.6549 114.323 68.0861 113.267 69.1417C112.212 70.1973 110.78 70.7911 109.288 70.7928Z" fill="#617575"/>
<path d="M80.4915 17.653L69.6849 26.3323L58.2934 12.1487C57.1482 10.7151 56.6183 8.88587 56.8198 7.06211C57.0213 5.23836 57.9379 3.56899 59.3685 2.42002C60.799 1.27105 62.6269 0.736306 64.4511 0.933041C66.2754 1.12978 67.9472 2.0419 69.1 3.46946L80.4915 17.653Z" fill="#7BA9A9"/>
<path d="M95.7734 38.4356L77.9003 52.7904C76.8664 53.6188 75.5461 54.0034 74.229 53.8596C72.9119 53.7158 71.7057 53.0555 70.8748 52.0235L63.356 42.6618C60.7177 39.3692 59.4932 35.1646 59.9511 30.9703C60.409 26.776 62.5119 22.9347 65.7985 20.2889L68.6498 17.9989C71.4114 15.7861 74.9379 14.7591 78.4557 15.1432C81.9735 15.5272 85.1953 17.291 87.4143 20.0474L96.5404 31.4104C97.3688 32.4443 97.7533 33.7646 97.6096 35.0816C97.4658 36.3987 96.8054 37.6048 95.7734 38.4356Z" fill="#617575"/>
<path d="M80.4916 17.6531L73.0621 23.6201L60.3144 7.74803C59.5232 6.76282 59.1557 5.50362 59.2928 4.24746C59.4299 2.99129 60.0605 1.84102 61.0457 1.04975C62.0309 0.258481 63.2901 -0.108979 64.5463 0.0281594C65.8024 0.165298 66.9527 0.795828 67.7439 1.78104L80.4916 17.6531Z" fill="#617575"/>
<path d="M94.6848 39.1183L75.0979 54.8494C73.6644 55.995 71.835 56.5253 70.011 56.3239C68.187 56.1225 66.5174 55.2059 65.3683 53.7751C64.2192 52.3444 63.6844 50.5163 63.8813 48.6919C64.0783 46.8674 64.9908 45.1955 66.4187 44.0429L86.0056 28.3118L94.6848 39.1183Z" fill="#617575"/>
<path d="M67.6135 55.5615C68.3129 54.9997 68.0602 53.5238 67.0491 52.2649C66.038 51.0059 64.6513 50.4407 63.9519 51.0024C63.2525 51.5642 63.5052 53.0401 64.5163 54.2991C65.5274 55.558 66.9141 56.1232 67.6135 55.5615Z" fill="#7BA9A9"/>
<path d="M35.8779 61.6022C35.8779 63.8156 36.7572 65.9384 38.3224 67.5036C39.8875 69.0687 42.0103 69.948 44.2238 69.948C48.8331 69.948 48.9928 65.7751 45.416 61.6022C48.9928 59.2177 48.8331 53.2563 44.2238 53.2563C42.0103 53.2563 39.8875 54.1356 38.3224 55.7008C36.7572 57.2659 35.8779 59.3887 35.8779 61.6022Z" fill="#CCCCCC"/>
<path d="M12.0327 61.6022C12.0327 63.8156 11.1534 65.9384 9.58829 67.5036C8.02314 69.0687 5.90035 69.948 3.68689 69.948C-0.922393 69.948 -1.08216 65.7751 2.49463 61.6022C-1.08216 59.2177 -0.922393 53.2563 3.68689 53.2563C5.90035 53.2563 8.02314 54.1356 9.58829 55.7008C11.1534 57.2659 12.0327 59.3887 12.0327 61.6022Z" fill="#CCCCCC"/>
<path d="M40.647 57.4293H7.26367V65.7751H40.647V57.4293Z" fill="#CCCCCC"/>
</svg>
