<svg width="130" height="52" viewBox="0 0 130 52" fill="none" xmlns="http://www.w3.org/2000/svg">
<g clip-path="url(#clip0)">
<path d="M13.1397 1.24038C11.9738 1.24038 10.8775 1.49173 9.85075 1.99443C8.83466 2.48643 7.94691 3.19235 7.18752 4.11217C6.42813 5.02131 5.82917 6.12831 5.39065 7.43318C4.95212 8.73806 4.73286 10.1927 4.73286 11.797C4.73286 12.8345 4.83447 13.8132 5.03769 14.733C5.2516 15.6421 5.55108 16.4871 5.93613 17.2679C6.32117 18.038 6.78108 18.7332 7.31587 19.3535C7.85065 19.9632 8.44426 20.4819 9.0967 20.9097C9.74914 21.3376 10.4497 21.6691 11.1984 21.9044C11.9471 22.129 12.7279 22.2414 13.5408 22.2414C14.2574 22.2414 14.9686 22.1611 15.6745 22.0007C16.3912 21.8403 17.0757 21.5996 17.7281 21.2787C18.3912 20.9579 19.0116 20.5621 19.5892 20.0915C20.1667 19.6209 20.6801 19.0808 21.1293 18.4711L21.9796 19.161C21.2737 20.1343 20.5143 20.9311 19.7015 21.5515C18.8993 22.1718 18.0864 22.6638 17.2629 23.0275C16.45 23.3804 15.6478 23.6211 14.8563 23.7494C14.0755 23.8885 13.3482 23.958 12.6744 23.958C11.0273 23.958 9.51918 23.6585 8.15013 23.0596C6.78108 22.4499 5.60456 21.621 4.62056 20.5728C3.63655 19.5247 2.87181 18.2946 2.32633 16.8828C1.78085 15.4603 1.50811 13.9308 1.50811 12.2944C1.50811 11.2676 1.60972 10.2461 1.81294 9.23006C2.02685 8.21397 2.34238 7.25136 2.75951 6.34222C3.18734 5.42239 3.71677 4.57209 4.34782 3.7913C4.97886 2.99982 5.71686 2.3153 6.56182 1.73773C7.40678 1.16017 8.3587 0.710947 9.41757 0.390077C10.4764 0.0585107 11.6423 -0.107272 12.9151 -0.107272C14.1558 -0.107272 15.3162 0.0585107 16.3965 0.390077C17.4768 0.721643 18.5249 1.22434 19.541 1.89817L19.3806 0.13338H21.1614V7.75405H19.9742C19.8566 6.72727 19.6106 5.81279 19.2362 5.01061C18.8726 4.19774 18.3966 3.51322 17.8083 2.95704C17.2308 2.40086 16.5462 1.97839 15.7548 1.6896C14.9633 1.39012 14.0916 1.24038 13.1397 1.24038ZM34.1804 8.26745C33.7633 8.25675 33.3408 8.33697 32.913 8.5081C32.4852 8.66853 32.0627 8.90919 31.6455 9.23006C31.2391 9.55093 30.8541 9.93597 30.4904 10.3852C30.1268 10.8344 29.8005 11.3318 29.5118 11.8772L29.5438 19.9471C29.5438 20.3857 29.5385 20.776 29.5278 21.1183C29.5171 21.4499 29.4797 21.8028 29.4155 22.1772L31.4851 22.0809V23.4286H24.7468V22.4499C25.2495 22.4499 25.6292 22.3537 25.8859 22.1611C26.1533 21.9579 26.3458 21.6798 26.4635 21.3269C26.5811 20.9739 26.6453 20.5514 26.656 20.0594C26.6774 19.5674 26.6881 19.0273 26.6881 18.439V10.9307C26.6881 10.5884 26.6934 10.2461 26.7041 9.90389C26.7148 9.55093 26.7523 9.18727 26.8164 8.81293L24.4901 8.90919V7.56153H25.5009C25.9715 7.56153 26.3619 7.54014 26.6721 7.49736C26.9822 7.44388 27.2389 7.37436 27.4421 7.28879C27.6561 7.20323 27.8325 7.11231 27.9716 7.01605C28.1106 6.90909 28.2443 6.79679 28.3727 6.67914H29.3192C29.3513 7.0214 29.3781 7.44923 29.3995 7.96262C29.4315 8.46532 29.4583 9.11775 29.4797 9.91993C29.7257 9.51349 30.0412 9.10706 30.4262 8.70062C30.8113 8.28349 31.2445 7.91449 31.7258 7.59362C32.2071 7.26205 32.7258 6.99466 33.282 6.79144C33.8382 6.57753 34.4104 6.47057 34.9986 6.47057C35.2981 6.47057 35.5869 6.51335 35.865 6.59892C36.1538 6.67379 36.3998 6.79679 36.603 6.96792C36.8169 7.13905 36.988 7.35297 37.1164 7.60966C37.2447 7.86636 37.3089 8.17653 37.3089 8.54019C37.3089 8.68993 37.2768 8.85571 37.2127 9.03753C37.1592 9.21936 37.0629 9.39049 36.9239 9.55093C36.7955 9.71136 36.6297 9.84506 36.4265 9.95202C36.2233 10.059 35.972 10.1125 35.6725 10.1125C35.4265 10.1125 35.2019 10.059 34.9986 9.95202C34.8061 9.84506 34.6403 9.71136 34.5013 9.55093C34.3729 9.3798 34.2767 9.18727 34.2125 8.97336C34.159 8.74875 34.1483 8.51345 34.1804 8.26745ZM47.3117 7.75405C46.0282 7.75405 44.9694 8.13375 44.1351 8.89314C43.3008 9.64184 42.75 10.8611 42.4826 12.5511H50.8573C50.8573 11.9735 50.7932 11.4013 50.6648 10.8344C50.5365 10.2568 50.3279 9.74345 50.0391 9.29423C49.761 8.83432 49.3974 8.46532 48.9482 8.18723C48.4989 7.89844 47.9535 7.75405 47.3117 7.75405ZM53.9537 13.7383L42.3864 13.9308C42.3757 15.1929 42.4719 16.3373 42.6752 17.3641C42.8784 18.3909 43.1992 19.268 43.6378 19.9953C44.0763 20.7226 44.6378 21.2841 45.3223 21.6798C46.0176 22.0756 46.8465 22.2734 47.8091 22.2734C48.3225 22.2734 48.8466 22.2039 49.3813 22.0649C49.9161 21.9258 50.4295 21.7387 50.9215 21.5034C51.4242 21.2574 51.8841 20.9686 52.3013 20.637C52.7184 20.2947 53.066 19.9311 53.3441 19.546L54.1463 20.2038C53.697 20.8883 53.173 21.4713 52.574 21.9526C51.9857 22.4232 51.3707 22.8082 50.729 23.1077C50.098 23.4072 49.4616 23.6211 48.8198 23.7494C48.1781 23.8885 47.5791 23.958 47.0229 23.958C45.8892 23.958 44.8303 23.7548 43.8463 23.3484C42.873 22.9419 42.0281 22.359 41.3115 21.5996C40.5948 20.8402 40.028 19.9257 39.6108 18.8562C39.2044 17.7866 39.0012 16.5833 39.0012 15.2464C39.0012 14.0912 39.1991 12.9896 39.5948 11.9414C39.9905 10.8825 40.5521 9.94667 41.2794 9.1338C42.0067 8.32092 42.8784 7.67384 43.8945 7.19253C44.9105 6.71122 46.0389 6.47057 47.2796 6.47057C48.1888 6.47057 49.0444 6.62031 49.8466 6.91979C50.6595 7.21927 51.3707 7.66849 51.9804 8.26745C52.59 8.8664 53.0714 9.6258 53.4243 10.5456C53.7773 11.4548 53.9537 12.519 53.9537 13.7383ZM66.7963 15.3908C66.2936 15.4122 65.7695 15.4603 65.224 15.5352C64.6892 15.5993 64.1598 15.7063 63.6357 15.856C63.1223 15.9951 62.6356 16.1769 62.1757 16.4015C61.7158 16.6261 61.3147 16.8935 60.9725 17.2037C60.6302 17.5139 60.3628 17.8722 60.1703 18.2786C59.9778 18.685 59.8922 19.145 59.9136 19.6583C59.9243 20.0648 59.9992 20.4231 60.1382 20.7333C60.2879 21.0327 60.4751 21.2841 60.6997 21.4873C60.935 21.6798 61.2024 21.8296 61.5019 21.9365C61.8014 22.0328 62.1223 22.0809 62.4645 22.0809C62.903 22.0809 63.3148 22.0381 63.6999 21.9526C64.0849 21.867 64.4486 21.744 64.7908 21.5836C65.1438 21.4124 65.4807 21.2092 65.8016 20.9739C66.1331 20.7386 66.4647 20.4659 66.7963 20.1557V15.3908ZM57.7798 10.4173C57.7798 9.8718 57.9402 9.35841 58.2611 8.8771C58.582 8.39579 59.0312 7.97866 59.6088 7.6257C60.1863 7.26205 60.8709 6.97862 61.6623 6.7754C62.4645 6.57218 63.3362 6.47057 64.2774 6.47057C66.1171 6.47057 67.4701 6.95722 68.3364 7.93053C69.2135 8.90384 69.6467 10.4494 69.636 12.5671L69.6039 19.9471C69.6039 20.2894 69.5932 20.637 69.5718 20.99C69.5611 21.3322 69.529 21.728 69.4755 22.1772L71.8018 22.0488V23.4286H67.1011C67.0369 23.0542 66.9888 22.728 66.9567 22.4499C66.9246 22.1718 66.8979 21.8777 66.8765 21.5675C66.1385 22.3055 65.331 22.8884 64.4539 23.3163C63.5876 23.7441 62.6677 23.958 61.6944 23.958C60.8709 23.958 60.1489 23.8564 59.5285 23.6532C58.9189 23.4607 58.4108 23.1879 58.0044 22.835C57.598 22.482 57.2932 22.0702 57.0899 21.5996C56.8867 21.1183 56.7851 20.6049 56.7851 20.0594C56.7851 19.3856 56.9295 18.7706 57.2183 18.2144C57.5178 17.6583 57.9135 17.1663 58.4055 16.7384C58.9082 16.2999 59.4911 15.9256 60.1542 15.6154C60.8174 15.2945 61.5179 15.0325 62.2559 14.8292C63.0046 14.626 63.764 14.4816 64.5341 14.3961C65.3149 14.2998 66.0743 14.257 66.8123 14.2677V12.2142C66.8123 11.6473 66.7802 11.0965 66.716 10.5617C66.6519 10.0269 66.5075 9.54023 66.2829 9.10171C66.069 8.66319 65.7267 8.31558 65.2561 8.05888C64.7962 7.80218 64.2614 7.67384 63.6517 7.67384C63.2988 7.67384 62.9619 7.70592 62.641 7.7701C62.3201 7.82358 62.0046 7.91984 61.6944 8.05888C61.3842 8.19792 61.1008 8.37975 60.8441 8.60436C60.5981 8.82897 60.3949 9.09636 60.2345 9.40654C60.3949 9.58836 60.5019 9.79158 60.5553 10.0162C60.6195 10.2301 60.6516 10.4387 60.6516 10.6419C60.6516 10.7702 60.6249 10.92 60.5714 11.0911C60.5179 11.2515 60.4323 11.4066 60.3147 11.5564C60.2077 11.6954 60.0633 11.8131 59.8815 11.9093C59.7104 11.9949 59.4751 12.0377 59.1756 12.0377C58.7478 12.0377 58.4055 11.8826 58.1488 11.5724C57.9028 11.2515 57.7798 10.8665 57.7798 10.4173ZM73.3978 7.00001C73.9754 6.98931 74.4995 6.83422 74.9701 6.53475C75.4407 6.22457 75.8525 5.84487 76.2055 5.39566C76.5691 4.93574 76.8739 4.43839 77.1199 3.90361C77.3659 3.36882 77.5585 2.86613 77.6975 2.39552H78.8206C78.8206 3.27256 78.8152 4.09078 78.8045 4.85018C78.8045 5.60957 78.8045 6.32618 78.8045 7.00001H84.3395V8.28349L78.8045 8.34766C78.7938 9.77019 78.7885 10.9841 78.7885 11.9895C78.7885 12.9949 78.7831 13.8345 78.7724 14.5084C78.7724 15.1822 78.7724 15.717 78.7724 16.1127C78.7724 16.4978 78.7671 16.7919 78.7564 16.9951C78.7564 17.1983 78.7564 17.332 78.7564 17.3962C78.7564 17.4497 78.7564 17.4818 78.7564 17.4925C78.7564 18.2412 78.7938 18.9043 78.8687 19.4819C78.9543 20.0487 79.0933 20.53 79.2858 20.9258C79.4783 21.3108 79.7297 21.605 80.0399 21.8082C80.3607 22.0007 80.7618 22.097 81.2431 22.097C81.81 22.097 82.3715 21.9258 82.9277 21.5836C83.4839 21.2413 83.9759 20.7547 84.4037 20.1236L85.2861 20.8456C84.8048 21.5729 84.3235 22.1451 83.8422 22.5622C83.3716 22.9687 82.9224 23.2735 82.4945 23.4767C82.0667 23.6906 81.6656 23.8243 81.2913 23.8778C80.9276 23.9313 80.6067 23.958 80.3286 23.958C79.9971 23.958 79.6548 23.9313 79.3019 23.8778C78.9596 23.8243 78.6173 23.7174 78.2751 23.5569C77.9435 23.4072 77.628 23.1933 77.3285 22.9152C77.0397 22.6264 76.783 22.2574 76.5584 21.8082C76.3338 21.359 76.1573 20.8135 76.029 20.1717C75.9006 19.53 75.8418 18.7706 75.8525 17.8936L75.9167 8.39579L73.3978 8.41184V7.00001ZM89.1603 10.9467C89.1603 10.6045 89.1656 10.2729 89.1763 9.95202C89.1977 9.63115 89.2352 9.25145 89.2886 8.81293L86.9623 8.94127V7.56153C87.6789 7.56153 88.2725 7.54014 88.7432 7.49736C89.2138 7.44388 89.5988 7.37436 89.8983 7.28879C90.1978 7.20323 90.4277 7.11231 90.5882 7.01605C90.7593 6.90909 90.909 6.79679 91.0374 6.67914H91.984V19.9471C91.984 20.3857 91.9786 20.776 91.9679 21.1183C91.9572 21.4499 91.9198 21.8028 91.8556 22.1772L93.9252 22.0809V23.4286H87.219V22.4499C87.7217 22.4499 88.1014 22.3537 88.3581 22.1611C88.6255 21.9579 88.818 21.6798 88.9357 21.3269C89.0533 20.9739 89.1175 20.5514 89.1282 20.0594C89.1496 19.5674 89.1603 19.0273 89.1603 18.439V10.9467ZM92.2888 1.48104C92.2888 1.74843 92.2353 1.99978 92.1283 2.23508C92.0321 2.47039 91.9037 2.67895 91.7433 2.86078C91.5829 3.03191 91.3957 3.16561 91.1818 3.26187C90.9679 3.35813 90.7433 3.40626 90.5079 3.40626C90.2726 3.40626 90.048 3.35813 89.8341 3.26187C89.6202 3.16561 89.4277 3.03191 89.2566 2.86078C89.0961 2.67895 88.9678 2.47039 88.8715 2.23508C88.7859 1.99978 88.7432 1.74843 88.7432 1.48104C88.7432 1.20295 88.7913 0.946252 88.8876 0.710947C88.9838 0.464947 89.1122 0.251033 89.2726 0.0692064C89.4437 -0.11262 89.6362 -0.251664 89.8502 -0.347925C90.0641 -0.454882 90.294 -0.50836 90.54 -0.50836C90.786 -0.50836 91.0106 -0.454882 91.2139 -0.347925C91.4278 -0.251664 91.615 -0.11262 91.7754 0.0692064C91.9358 0.251033 92.0588 0.464947 92.1444 0.710947C92.2406 0.946252 92.2888 1.20295 92.2888 1.48104ZM104.345 23.5248H103.03L98.3288 12.8078C98.0615 12.1874 97.8368 11.6366 97.655 11.1553C97.4839 10.674 97.3448 10.2515 97.2379 9.88784C97.1416 9.51349 97.0721 9.19797 97.0293 8.94127C96.9865 8.67388 96.9598 8.44392 96.9491 8.2514L95.5373 8.34766V7.00001H101.586V7.97866C101.083 7.97866 100.719 8.08027 100.495 8.28349C100.281 8.48671 100.163 8.75945 100.142 9.10171C100.12 9.43328 100.174 9.81832 100.302 10.2568C100.441 10.6954 100.618 11.1553 100.832 11.6366L103.35 17.4123C103.522 17.7866 103.687 18.1823 103.848 18.5995C104.008 19.0059 104.174 19.4177 104.345 19.8348H104.377C104.495 19.514 104.618 19.1717 104.746 18.808C104.885 18.4444 105.019 18.0807 105.147 17.7171L107.762 10.5135C107.944 9.98945 108.126 9.52954 108.308 9.1338C108.5 8.73806 108.645 8.44392 108.741 8.2514L106.639 8.34766V7.00001H111.837V7.97866C111.474 7.97866 111.158 8.07492 110.891 8.26745C110.624 8.44927 110.372 8.72736 110.137 9.10171C109.902 9.46536 109.666 9.92528 109.431 10.4815C109.196 11.0376 108.934 11.6847 108.645 12.4227L104.345 23.5248ZM121.792 7.75405C120.509 7.75405 119.45 8.13375 118.616 8.89314C117.781 9.64184 117.23 10.8611 116.963 12.5511H125.338C125.338 11.9735 125.274 11.4013 125.145 10.8344C125.017 10.2568 124.808 9.74345 124.52 9.29423C124.241 8.83432 123.878 8.46532 123.429 8.18723C122.979 7.89844 122.434 7.75405 121.792 7.75405ZM128.434 13.7383L116.867 13.9308C116.856 15.1929 116.952 16.3373 117.156 17.3641C117.359 18.3909 117.68 19.268 118.118 19.9953C118.557 20.7226 119.118 21.2841 119.803 21.6798C120.498 22.0756 121.327 22.2734 122.29 22.2734C122.803 22.2734 123.327 22.2039 123.862 22.0649C124.397 21.9258 124.91 21.7387 125.402 21.5034C125.905 21.2574 126.365 20.9686 126.782 20.637C127.199 20.2947 127.546 19.9311 127.825 19.546L128.627 20.2038C128.177 20.8883 127.653 21.4713 127.054 21.9526C126.466 22.4232 125.851 22.8082 125.209 23.1077C124.578 23.4072 123.942 23.6211 123.3 23.7494C122.659 23.8885 122.06 23.958 121.503 23.958C120.37 23.958 119.311 23.7548 118.327 23.3484C117.353 22.9419 116.509 22.359 115.792 21.5996C115.075 20.8402 114.508 19.9257 114.091 18.8562C113.685 17.7866 113.482 16.5833 113.482 15.2464C113.482 14.0912 113.679 12.9896 114.075 11.9414C114.471 10.8825 115.032 9.94667 115.76 9.1338C116.487 8.32092 117.359 7.67384 118.375 7.19253C119.391 6.71122 120.519 6.47057 121.76 6.47057C122.669 6.47057 123.525 6.62031 124.327 6.91979C125.14 7.21927 125.851 7.66849 126.461 8.26745C127.07 8.8664 127.552 9.6258 127.905 10.5456C128.258 11.4548 128.434 12.519 128.434 13.7383Z" fill="#333333"/>
<path d="M3.69108 33.415H7.17252C8.78757 33.415 9.9534 33.6503 10.67 34.121C11.392 34.5916 11.7529 35.3349 11.7529 36.351C11.7529 37.0355 11.5765 37.6051 11.2235 38.0596C10.8706 38.5142 10.3625 38.8003 9.69937 38.918V38.9982C10.5229 39.1533 11.1272 39.4608 11.5123 39.9207C11.9027 40.3753 12.0979 40.9929 12.0979 41.7737C12.0979 42.8272 11.7289 43.6535 10.9909 44.2524C10.2582 44.846 9.23679 45.1429 7.92657 45.1429H3.69108V33.415ZM5.60828 38.2602H7.45328C8.25546 38.2602 8.84105 38.1345 9.21005 37.8832C9.57905 37.6265 9.76355 37.1933 9.76355 36.5836C9.76355 36.0328 9.563 35.6344 9.16192 35.3884C8.76618 35.1424 8.13513 35.0194 7.26878 35.0194H5.60828V38.2602ZM5.60828 39.8164V43.5305H7.6458C8.44798 43.5305 9.05229 43.3781 9.45872 43.0732C9.87051 42.7631 10.0764 42.2764 10.0764 41.6133C10.0764 41.0036 9.86783 40.5517 9.4507 40.2576C9.03357 39.9635 8.39985 39.8164 7.54954 39.8164H5.60828ZM22.4495 38.7656L25.225 33.415H27.3107L23.4041 40.5945V45.1429H21.4788V40.6587L17.5883 33.415H19.674L22.4495 38.7656ZM49.9612 45.1429H47.6109L41.8432 35.7975H41.779L41.8191 36.3189C41.894 37.3136 41.9315 38.2227 41.9315 39.0463V45.1429H40.1907V33.415H42.517L48.2686 42.7123H48.3168C48.3061 42.5893 48.2847 42.1427 48.2526 41.3726C48.2205 40.5972 48.2045 39.9929 48.2045 39.5597V33.415H49.9612V45.1429ZM64.9334 45.1429L63.7622 41.886H59.278L58.1309 45.1429H56.1094L60.4973 33.3669H62.583L66.9709 45.1429H64.9334ZM63.2568 40.2335L62.1578 37.0409C62.0776 36.827 61.9653 36.49 61.8209 36.0301C61.6819 35.5702 61.5856 35.2333 61.5321 35.0194C61.3878 35.6772 61.1765 36.3965 60.8984 37.1772L59.8396 40.2335H63.2568ZM77.1701 45.1429H75.2529V35.0595H71.8035V33.415H80.6194V35.0595H77.1701V45.1429ZM96.2173 33.415V41.0036C96.2173 41.87 96.0301 42.6294 95.6557 43.2818C95.2867 43.9289 94.7493 44.4289 94.0434 44.7819C93.3428 45.1295 92.5032 45.3033 91.5245 45.3033C90.0699 45.3033 88.9389 44.9182 88.1313 44.1482C87.3238 43.3781 86.9201 42.3192 86.9201 40.9715V33.415H88.8453V40.8352C88.8453 41.8031 89.0699 42.5171 89.5191 42.977C89.9683 43.4369 90.6582 43.6668 91.5887 43.6668C93.3963 43.6668 94.3001 42.7176 94.3001 40.8191V33.415H96.2173ZM105.735 38.8698H107.066C107.959 38.8698 108.606 38.7041 109.007 38.3725C109.409 38.0409 109.609 37.5489 109.609 36.8965C109.609 36.2334 109.393 35.7574 108.959 35.4686C108.526 35.1798 107.874 35.0354 107.002 35.0354H105.735V38.8698ZM105.735 40.4581V45.1429H103.817V33.415H107.13C108.644 33.415 109.764 33.6985 110.492 34.2653C111.219 34.8322 111.582 35.6879 111.582 36.8323C111.582 38.2923 110.823 39.3324 109.304 39.9528L112.617 45.1429H110.435L107.628 40.4581H105.735ZM125.56 45.1429H118.926V33.415H125.56V35.0354H120.843V38.2281H125.263V39.8324H120.843V43.5144H125.56V45.1429Z" fill="#333333"/>
</g>
<defs>
<clipPath id="clip0">
<rect width="130" height="51.4286" fill="white" transform="translate(6.10352e-05 0.285736)"/>
</clipPath>
</defs>
</svg>
